<?xml version="1.0" encoding="UTF-8"?>
<svg id="Layer_1" data-name="Layer 1" xmlns="http://www.w3.org/2000/svg" viewBox="0 0 500 230">
  <defs>
    <style>
      .cls-1 {
        fill: #dc1f27;
      }
    </style>
  </defs>
  <g>
    <path d="M474.12,37.4h-16.7c-5.72,0-9.72-3.82-9.72-9.29,0-10.05,9.37-10.05,13.87-10.05h30.24V2.13h-37.33c-11.22,0-23.14,8.8-23.14,25.11,0,17.3,9.95,26.08,29.57,26.08h11.03c7.97,0,13.33,4.96,13.33,12.35s-5.61,12.13-14.64,12.13h-31.11v15.05h36.03c14.17,0,24.45-11.43,24.45-27.18s-10.88-28.27-25.88-28.27Z"/>
    <g>
      <g>
        <path d="M134,1.63c-24.46,0-39.51,14.67-39.51,38.36v14.93c0,23.68,15.45,38.36,40.03,38.36s39.51-14.67,39.51-38.36v-14.93c0-23.68-15.45-38.36-40.03-38.36ZM156.78,49.86v5.06c0,14.42-8.62,22.91-22.27,22.91s-22.78-8.62-22.78-22.91v-14.93c0-14.42,8.62-22.91,22.27-22.91s22.78,8.62,22.78,22.91v9.87Z"/>
        <path d="M260.27,24.93c0,9.91-5.92,17.5-15.7,19.95,11.97,2.19,19.18,10.81,19.18,22.78,0,15.45-12.74,24.84-33.34,24.84h-41.19V2.4h40.03c19.18,0,31.02,8.62,31.02,22.52ZM242.63,28.02c0-6.82-5.41-10.81-14.29-10.68h-21.88v21.88h21.88c8.88,0,14.29-4.12,14.29-11.2ZM245.85,65.47c0-7.34-6.56-11.84-17.5-11.71h-21.88v23.81h21.88c10.94.13,17.5-4.38,17.5-12.1Z"/>
        <path d="M297.73,2.4v74.52h38.87v15.57h-56.12V2.4h17.25Z"/>
        <path d="M416.15,2.4v15.06h-48.78v22.27h43.76v15.06h-43.76v22.65h50.33v15.06h-67.57V2.4h66.03Z"/>
        <polygon points="62.81 35.83 62.81 64.06 16.34 2.4 0 2.4 0 92.5 16.86 92.5 16.86 30.98 63.2 92.5 79.55 92.5 79.55 81.14 79.55 35.83 62.81 35.83"/>
      </g>
      <g>
        <rect x="0" y="117.64" width="16.86" height="16.86"/>
        <g>
          <path d="M482.82,151.59v25.01h-146.23v-37.25h-56.26v54.11h39.39v34.91h16.86v-34.91h163.09v-41.87h-16.86ZM297.2,176.6v-20.39h22.53v20.39h-22.53Z"/>
          <polygon points="246.88 176.6 142.68 176.6 142.68 117.64 125.82 117.64 125.82 176.6 16.86 176.6 16.86 151.48 0 151.48 0 176.6 0 193.46 0 228.37 16.86 228.37 16.86 193.46 125.82 193.46 142.68 193.46 263.74 193.46 263.74 185.43 263.74 176.6 263.74 139.35 246.88 139.35 246.88 176.6"/>
          <rect x="246.88" y="211.51" width="16.86" height="16.86"/>
        </g>
      </g>
      <rect class="cls-1" x="62.81" y="2.13" width="16.73" height="16.85"/>
    </g>
  </g>
  <rect class="cls-1" x="482.82" y="117.64" width="16.86" height="16.98"/>
</svg>